<svg xmlns="http://www.w3.org/2000/svg" xmlns:xlink="http://www.w3.org/1999/xlink" width="22" height="24" viewBox="0 0 22 24">
  <defs>
    <clipPath id="clip-path">
      <path id="Path_1225" d="M0-75.685H22v-24H0Z" transform="translate(0 99.685)"/>
    </clipPath>
  </defs>
  <g id="Group_4240" clip-path="url(#clip-path)">
    <g id="Group_4238" transform="translate(0 0)">
      <path id="Path_1223" d="M-6.516-69.181a6.638,6.638,0,0,0,3.153,1.828,7.133,7.133,0,0,0,3.627,0,6.942,6.942,0,0,0,3.177-1.828l9.246-9.188a.444.444,0,0,0,.19-.375.581.581,0,0,0-.19-.422l-.806-.8A.515.515,0,0,0,11.5-80.1a.7.7,0,0,0-.427.141L1.829-70.775a4.655,4.655,0,0,1-3.39,1.406,4.616,4.616,0,0,1-3.366-1.383,4.511,4.511,0,0,1-1.4-3.328,4.629,4.629,0,0,1,1.375-3.352L5.717-87.978a3.178,3.178,0,0,1,2.252-.891,3.055,3.055,0,0,1,2.228.914,2.985,2.985,0,0,1,.925,2.2,2.947,2.947,0,0,1-.9,2.18L1.213-74.665a1.455,1.455,0,0,1-1.067.422,1.574,1.574,0,0,1-1.114-.445,1.424,1.424,0,0,1-.474-1.078,1.353,1.353,0,0,1,.474-1.055l7.586-7.547a.444.444,0,0,0,.189-.375.58.58,0,0,0-.189-.422l-.806-.8a.516.516,0,0,0-.379-.141.516.516,0,0,0-.379.141L-2.58-78.415a3.629,3.629,0,0,0-1.138,2.672A3.554,3.554,0,0,0-2.58-73.095a3.753,3.753,0,0,0,2.7,1.1,3.8,3.8,0,0,0,2.7-1.078l8.961-8.906a5.327,5.327,0,0,0,1.422-2.414,5.134,5.134,0,0,0,0-2.766,5.174,5.174,0,0,0-1.422-2.391,5.515,5.515,0,0,0-2.442-1.383,5.313,5.313,0,0,0-2.8,0,5.293,5.293,0,0,0-2.394,1.36L-6.516-78.978a6.533,6.533,0,0,0-1.849,3.094,6.9,6.9,0,0,0,0,3.586,6.528,6.528,0,0,0,1.849,3.117" transform="translate(8.602 91.118)"/>
    </g>
    <g id="Group_4239" transform="translate(0 0)">
      <path id="Path_1224" d="M0-13.105a.386.386,0,0,0,.118.285.392.392,0,0,0,.287.117H3.781v1.743a.386.386,0,0,0,.118.285.392.392,0,0,0,.287.117.392.392,0,0,0,.287-.117l2.971-2.949a.386.386,0,0,0,.118-.285.386.386,0,0,0-.118-.285L4.473-17.144a.392.392,0,0,0-.287-.117.392.392,0,0,0-.287.117.386.386,0,0,0-.118.285v1.743H.405A.392.392,0,0,0,.118-15,.386.386,0,0,0,0-14.714Z" transform="translate(0 17.261)"/>
    </g>
  </g>
</svg>
